<svg xmlns="http://www.w3.org/2000/svg" xmlns:xlink="http://www.w3.org/1999/xlink" width="1687" height="364" viewBox="0 0 1687 364">
  <defs>
    <linearGradient id="linear-gradient" y1="0.5" x2="1" y2="0.5" gradientUnits="objectBoundingBox">
      <stop offset="0" stop-color="#5690ff" stop-opacity="0.988"/>
      <stop offset="1" stop-color="#0052e0"/>
    </linearGradient>
    <clipPath id="clip-Renderforest">
      <rect width="1687" height="364"/>
    </clipPath>
  </defs>
  <g id="Renderforest" clip-path="url(#clip-Renderforest)">
    <rect width="1687" height="364" fill="#fff"/>
    <g id="Group_92" data-name="Group 92" transform="translate(-2704 9566)">
      <text id="VIDEO_MAKER" data-name="VIDEO MAKER" transform="translate(3143.528 -9269.88)" fill="#363f5a" font-size="47.2" font-family="Montserrat-SemiBold, Montserrat" font-weight="600" letter-spacing="0.5em"><tspan x="0" y="0">REINVENT YOUR CREATIVITY</tspan></text>
      <path id="Union_24" data-name="Union 24" d="M256.68,158.168a4.075,4.075,0,0,1-3.793-4.215V82.865c0-28.1,15.525-42.148,44.536-42.148h10.045C336.479,40.717,352,54.766,352,82.865v71.088a4.074,4.074,0,0,1-3.863,4H323.413a4.215,4.215,0,0,1-4-4.215V82.865c0-8.851-1.4-15.1-11.871-15.1H297.422c-10.467,0-11.872,6.251-11.872,15.1v71.088a4.215,4.215,0,0,1-4,4.215Zm523.441-14.239c-8.53-9.065-13.039-22.28-13.039-38.215V91.663c0-15.935,4.509-29.148,13.039-38.212,8.737-9.282,21.718-14.188,37.541-14.188,15.8,0,28.748,4.907,37.431,14.189,8.462,9.046,12.936,22.26,12.936,38.211v14.05c0,15.981-4.473,29.205-12.936,38.244-8.676,9.266-21.619,14.164-37.431,14.164S788.858,153.213,780.121,143.928Zm19.416-52.265v14.05c0,8.069,1.578,14.3,4.689,18.511,3.081,4.174,7.6,6.289,13.435,6.289,11.717,0,17.912-8.576,17.912-24.8V91.663c0-16.081-6.194-24.581-17.912-24.581C805.8,67.083,799.537,75.583,799.537,91.663Zm-415.6,52.88c-8.652-8.909-13.039-21.694-13.039-38V90.74c0-33.252,17.963-51.565,50.579-51.565a142.054,142.054,0,0,1,16.508,1.4V5.46a4.057,4.057,0,0,1,4-4.006h24.17a4.216,4.216,0,0,1,4.211,4.006V146.653c-.215,3.546-1.139,4.937-6.183,6.183a187.349,187.349,0,0,1-42.7,5.265C405.3,158.1,392.673,153.539,383.936,144.543ZM406.864,73.22c-2.553,4.032-3.793,9.784-3.793,17.589v15.735c0,16.914,5.759,24.793,18.124,24.793h.3a111.821,111.821,0,0,0,16.207-1.192V67.206A152.666,152.666,0,0,0,421.2,66.22C414.534,66.22,409.846,68.51,406.864,73.22Zm599.159,84.853c-.972,0-1.941-.009-2.913-.027-13.541,0-25.769-4.019-34.43-11.316-10.715-9.029-16.149-22.639-16.149-40.455V92.224c0-16.017,4.664-29.382,13.487-38.649,8.916-9.364,21.887-14.313,37.51-14.313,15.318,0,28.071,5.213,36.88,15.075,8.411,9.417,12.857,22.518,12.857,37.886v11.668c-.34,2.81-2.218,4.772-4.567,4.772H984.424v.425c0,18.171,11.457,21.985,21.068,21.985,12.482,0,30.417-.963,38.706-1.828h.637c2.446,0,3.793,1.148,3.793,3.232V147.8c0,3.023-.631,4.6-4.218,5.409a153.865,153.865,0,0,1-38.375,4.868Zm-21.6-70.484v.773h36.666v-.773c0-7.266-1.649-12.9-4.9-16.752-3.129-3.7-7.578-5.583-13.224-5.583C991.355,65.254,984.424,73.6,984.424,87.589ZM542.4,158.073c-.972,0-1.941-.009-2.913-.027-13.541,0-25.769-4.019-34.43-11.316-10.716-9.029-16.149-22.639-16.149-40.455V92.224c0-16.017,4.664-29.382,13.487-38.649,8.916-9.364,21.887-14.313,37.51-14.313,15.318,0,28.07,5.213,36.88,15.075,8.411,9.417,12.857,22.518,12.857,37.886v11.668c0,3.077-1.5,4.772-4.218,4.772H521.152v.425c0,18.171,11.461,21.985,21.075,21.985,12.473,0,30.41-.963,38.707-1.828h.281c2.446,0,3.793,1.148,3.793,3.232V147.8c0,3.023-.631,4.6-4.218,5.409a153.86,153.86,0,0,1-38.375,4.868ZM521.152,87.589v.773h36.666v-.773c0-7.266-1.649-12.9-4.9-16.752-3.129-3.7-7.578-5.583-13.224-5.583C528.083,65.254,521.152,73.6,521.152,87.589ZM188.363,158.073c-.971,0-1.94-.009-2.913-.027-13.541,0-25.769-4.019-34.43-11.316-10.716-9.029-16.149-22.639-16.149-40.455V92.224c0-16.017,4.664-29.382,13.487-38.649,8.916-9.364,21.887-14.313,37.51-14.313,15.318,0,28.071,5.213,36.88,15.075,8.411,9.417,12.857,22.518,12.857,37.886v11.668c-.367,3.033-2.032,4.772-4.567,4.772H166.765v.425c0,18.171,11.456,21.985,21.068,21.985,12.482,0,30.417-.963,38.706-1.828h.637c2.446,0,3.793,1.148,3.793,3.232V147.8c0,3.023-.631,4.6-4.218,5.409a153.865,153.865,0,0,1-38.376,4.868Zm-21.6-70.484v.773h36.666v-.773c0-7.266-1.649-12.9-4.9-16.752-3.129-3.7-7.578-5.583-13.224-5.583C173.7,65.254,166.765,73.6,166.765,87.589Zm-85,70.472c-2.048,0-2.869-1.682-3.74-3.464q-.132-.27-.266-.541l-27.182-51H48.326c-2.188,0-4.918-.113-7.557-.221-2.455-.1-4.767-.2-6.486-.2v51.414a4.061,4.061,0,0,1-4.006,4.005H4.005A4.061,4.061,0,0,1,0,154.056V18.91c0-6.988,2.794-8.639,9.059-9.7A320.049,320.049,0,0,1,49.942,6.544c40.228,0,60.624,15.858,60.624,47.135v2.6A40.433,40.433,0,0,1,84.574,96.6l30.414,56.831a5.325,5.325,0,0,1,.637,2.245c0,1.564-1.044,2.39-3.019,2.39ZM34.139,36.465V75.172c1.161,0,4.348.113,7.429.223,2.92.1,5.672.2,6.621.2,10.661,0,17.636-1.4,21.954-4.417,4.193-2.928,6.147-7.6,6.147-14.694V53.747c0-11.886-8.888-17.912-26.416-17.912C47.122,35.835,36.682,36.253,34.139,36.465ZM1075.18,153.63a4.565,4.565,0,0,1-3.793-4.636V132.7a3.722,3.722,0,0,1,3.793-3.793h.773c10.888,1.4,28.1,2.809,34.28,2.809,9.694,0,11.872-2.6,11.872-7.867,0-3.021-1.826-5.268-7.446-8.43l-26.2-15.1a33.3,33.3,0,0,1-17.913-29.784c0-20.372,13.488-31.259,41.3-31.259a130.293,130.293,0,0,1,35.9,4.636,4.566,4.566,0,0,1,3.793,4.636v16.3c0,2.388-1.194,3.793-3.231,3.793h-.773a322.94,322.94,0,0,0-33.437-2.6c-7.868,0-10.677,1.194-10.677,5.83,0,3.021,2.248,4.636,6.251,7.025l25.008,14.049c16.718,9.694,20.371,20.161,20.371,31.049-.07,19.177-13.768,34.069-43.2,34.069A157.442,157.442,0,0,1,1075.18,153.63Zm-185.87,4.424a4.426,4.426,0,0,1-4.215-4.214V53.108c0-2.81,1.616-4.847,6.252-6.463a134.04,134.04,0,0,1,44.536-5.831c2.389,0,5.409.984,5.409,3.793V64.136c.071,2.248-1.615,3.863-5.479,3.863a120.544,120.544,0,0,0-18.124,1.194V153.84a4.214,4.214,0,0,1-4,4.214Zm-269.743,0a4.425,4.425,0,0,1-4.214-4.214V53.108c0-2.81,1.616-4.847,6.252-6.463a134.038,134.038,0,0,1,44.535-5.831c2.388,0,5.409.984,5.409,3.793V64.136C671.478,66.385,670,68,666.069,68a120.545,120.545,0,0,0-18.124,1.194V153.84a4.214,4.214,0,0,1-4,4.214Zm596.455-.187c-22.549,0-35.9-7.024-35.9-33.226V23.488a4.356,4.356,0,0,1,4-4l24.586-4.215h.632a4.145,4.145,0,0,1,3.653,4V40.347h27.606a4.074,4.074,0,0,1,4,4V60.718a4.074,4.074,0,0,1-4,4.285H1213v59.849c0,7.025,3.231,8.289,11.872,8.289h15.1c2.6,0,4.215,1.194,4.215,3.442v15.454c0,2.248-1.4,3.653-4,4a160.27,160.27,0,0,1-24.125,1.826ZM687,157.7a4.426,4.426,0,0,1-4.215-4.215V34.069C682.787,5.971,701.753,0,722.054,0a179.077,179.077,0,0,1,21.987,1.826c2.248.421,3.021,1.194,3.021,2.388V21.144c0,2.248-.773,3.231-2.81,3.231H723.179c-6.252,0-7.657,3.793-7.657,9.694v8.078h27.4a4.074,4.074,0,0,1,4,4V62.167a4.076,4.076,0,0,1-3.934,4.286h-27.4v87.034a4.425,4.425,0,0,1-4.215,4.215Z" transform="translate(3143.164 -9510.741)" fill="#363f5a" stroke="rgba(0,0,0,0)" stroke-width="1"/>
      <g id="Group_3_Copy" data-name="Group 3 Copy" transform="translate(2704 -9566)">
        <path id="Path" d="M265.282,167.188l-63.9-42.13L26.261,17.273A159.113,159.113,0,0,1,56.666,67.9a168.521,168.521,0,0,1,9.55,37.426l131.307,82.295a10.743,10.743,0,0,1,2.739,14.956l-.492.632h0l-.492.562-.562.562h-.351l-.913.7L70.639,282.274a7.583,7.583,0,0,1-10.6-2.036,7.724,7.724,0,0,1-1.334-4.283V99.779a166.837,166.837,0,0,0-8.5-31.879A149,149,0,0,0,4.143,2.738L0,0V331.567a32.511,32.511,0,0,0,50.346,27.1L265.282,224.7a34.406,34.406,0,0,0,0-57.508Z" fill="#5690ff" opacity="0.47"/>
        <path id="Path-2" data-name="Path" d="M265.282,167.188l-63.9-42.13a49.714,49.714,0,0,1,7.022,70.217,48.659,48.659,0,0,1-8.426,8.145h0l-.492.562-.562.562h0l-.913.7-91.283,53.787h0l-35.109,23.8a7.584,7.584,0,0,1-11.094-1.966,7.724,7.724,0,0,1-1.334-4.283V100.06A164.379,164.379,0,0,0,50.206,67.9,149,149,0,0,0,4.143,2.738L0,0V331.567a32.511,32.511,0,0,0,50.346,27.1L265.282,224.7a34.406,34.406,0,0,0,0-57.508Z" fill="url(#linear-gradient)"/>
      </g>
    </g>
  </g>
</svg>
